HIERARCHY
ROOT Hips
{
  OFFSET 49.8378 54.538 2.76612
  CHANNELS 6 Xposition Yposition Zposition Zrotation Xrotation Yrotation
  JOINT spine
  {
    OFFSET 0 7.80059 0.448573
    CHANNELS 3 Zrotation Xrotation Yrotation
    JOINT spine1
    {
      OFFSET 0 10.1364 0
      CHANNELS 3 Zrotation Xrotation Yrotation
      JOINT spine2
      {
        OFFSET 0 9.71251 0
        CHANNELS 3 Zrotation Xrotation Yrotation
        JOINT Neck
        {
          OFFSET 0 24.9361 1.18887
          CHANNELS 3 Zrotation Xrotation Yrotation
          JOINT Head
          {
            OFFSET 0 7.53384 0
            CHANNELS 3 Zrotation Xrotation Yrotation
            End Site
            {
              OFFSET 0 18.2361 -6.01402
            }
          }
        }
        JOINT RightShoulder
        {
          OFFSET -4.08965 10.4888 -0.569457
          CHANNELS 3 Zrotation Xrotation Yrotation
          JOINT RightArm
          {
            OFFSET 0 13.757 0
            CHANNELS 3 Zrotation Xrotation Yrotation
            JOINT RightArmRoll
            {
              OFFSET 0 6.94478 0
              CHANNELS 3 Zrotation Xrotation Yrotation
              JOINT RightForeArm
              {
                OFFSET 0 20.2277 0
                CHANNELS 3 Zrotation Xrotation Yrotation
                JOINT RightForeArmRoll
                {
                  OFFSET 0 7.79312 0
                  CHANNELS 3 Zrotation Xrotation Yrotation
                  JOINT RightHand
                  {
                    OFFSET 0 15.6391 0
                    CHANNELS 3 Zrotation Xrotation Yrotation
                    End Site
                    {
                      OFFSET 0 0 0
                    }
                  }
                }
              }
            }
          }
        }
        JOINT LeftShoulder
        {
          OFFSET 4.08965 10.4888 -0.569457
          CHANNELS 3 Zrotation Xrotation Yrotation
          JOINT LeftArm
          {
            OFFSET 0 13.757 0
            CHANNELS 3 Zrotation Xrotation Yrotation
            JOINT LeftArmRoll
            {
              OFFSET 0 6.94478 0
              CHANNELS 3 Zrotation Xrotation Yrotation
              JOINT LeftForeArm
              {
                OFFSET 0 20.2277 0
                CHANNELS 3 Zrotation Xrotation Yrotation
                JOINT LeftForeArmRoll
                {
                  OFFSET 0 7.79313 0
                  CHANNELS 3 Zrotation Xrotation Yrotation
                  JOINT LeftHand
                  {
                    OFFSET 0 15.6391 0
                    CHANNELS 3 Zrotation Xrotation Yrotation
                    End Site
                    {
                      OFFSET 0 0 0
                    }
                  }
                }
              }
            }
          }
        }
      }
    }
  }
  JOINT RightUpLeg
  {
    OFFSET -6.91416 -1.26788 -1.06358
    CHANNELS 3 Zrotation Xrotation Yrotation
    JOINT RightUpLegRoll
    {
      OFFSET 0 18.3378 0
      CHANNELS 3 Zrotation Xrotation Yrotation
      JOINT RightLeg
      {
        OFFSET 0 -22.7085 0
        CHANNELS 3 Zrotation Xrotation Yrotation
        JOINT RightLegRoll
        {
          OFFSET 0 22.7828 0
          CHANNELS 3 Zrotation Xrotation Yrotation
          JOINT RightFoot
          {
            OFFSET 0 18.9629 0
            CHANNELS 3 Zrotation Xrotation Yrotation
            JOINT RightToeBase
            {
              OFFSET 0 15.852 0
              CHANNELS 3 Zrotation Xrotation Yrotation
              End Site
              {
                OFFSET 0.00671906 7.67701 -0.884893
              }
            }
          }
        }
      }
    }
  }
  JOINT LeftUpLeg
  {
    OFFSET 6.91416 -1.26788 -1.06358
    CHANNELS 3 Zrotation Xrotation Yrotation
    JOINT LeftUpLegRoll
    {
      OFFSET 0 18.3379 0
      CHANNELS 3 Zrotation Xrotation Yrotation
      JOINT LeftLeg
      {
        OFFSET 0 22.7084 0
        CHANNELS 3 Zrotation Xrotation Yrotation
        JOINT LeftLegRoll
        {
          OFFSET 0 22.9934 0
          CHANNELS 3 Zrotation Xrotation Yrotation
          JOINT LeftFoot
          {
            OFFSET 0 18.7522 0
            CHANNELS 3 Zrotation Xrotation Yrotation
            JOINT LeftToeBase
            {
              OFFSET 0 15.852 0
              CHANNELS 3 Zrotation Xrotation Yrotation
              End Site
              {
                OFFSET -0.030112 7.67701 -0.884892
              }
            }
          }
        }
      }
    }
  }
}
MOTION
Frames: 9
Frame Time: 0.00208333
49.9248 54.0946 5.99585 -3.19295 7.2466 16.3103 0.996284 5.83315 -0.349098 2.08934 15.6599 -0.947358 2.11178 17.3043 -0.987432 -8.68492 -4.0454 -8.9246 15.1991 0.96692 -8.69825 55.6817 -7.12384 -4.2934 117.047 18.7295 -45.2454 4.57451e-006 8.23081e-007 3.25657e-006 -30.9633 86.9752 25.0903 1.1581e-005 3.05772e-007 -3 8.02889 -4.9514 0.697667 -53.0042 -4.6736 2.48482 -104.77 27.3945 42.9056 4.38208e-006 9.87258e-008 4.2217e-006 -20.3271 79.0087 24.6233 1.61183e-006 2.32867e-007 3 -8.02957 -4.95143 -0.697659 66.4198 83.226 118.178 180 7.01476e-015 178.65 -12.0753 74.3626 13.5131 -5.3236e-007 -4.95797e-006 2.63125 -49.1419 81.801 52.2563 8.13649 25.2327 -3.48773 4.80975 85.833 167.062 4.54188e-006 -4.6773e-006 -2.02091 161.441 -76.9427 158.865 3.15201e-007 2.66692e-006 -3.25431 43.1111 78.5971 -40.154 -8.13758 25.2488 3.48593 
49.9167 54.0177 5.95552 -3.14123 7.07408 16.2472 0.997368 5.84337 -0.353103 2.09116 15.6803 -0.955716 2.11374 17.3246 -0.995862 -8.83832 -3.98548 -8.87471 15.3043 1.01547 -8.6687 55.5649 -7.10073 -4.27304 117.213 18.7549 -45.2288 4.57451e-006 8.23081e-007 3.25657e-006 -30.7241 87.0065 24.8623 1.1581e-005 3.05772e-007 -3 8.02889 -4.9514 0.697667 -53.1226 -4.65414 2.4802 -104.676 27.2986 42.7319 4.38208e-006 9.87258e-008 4.2217e-006 -20.2199 79.1082 24.5736 1.61183e-006 2.32867e-007 3 -8.02957 -4.95143 -0.697659 66.6282 83.2802 117.969 180 7.01475e-015 178.648 -12.1212 74.2821 13.5901 -5.3236e-007 -4.95797e-006 2.62918 -48.798 81.7629 51.9277 8.13649 25.2327 -3.48773 4.17786 85.8909 167.667 4.54188e-006 -4.6773e-006 -2.02514 161.479 -76.8547 158.881 3.15201e-007 2.66692e-006 -3.25762 43.004 78.5673 -40.0355 -8.13758 25.2488 3.48593 
49.9237 53.9348 5.9147 -3.0892 6.90001 16.1846 0.998529 5.85366 -0.357153 2.09305 15.7008 -0.964149 2.11577 17.3451 -1.00437 -8.99057 -3.92312 -8.82413 15.4087 1.06316 -8.63855 55.449 -7.07674 -4.25212 117.378 18.7832 -45.2064 4.57451e-006 8.23081e-007 3.25657e-006 -30.4241 87.0369 24.5755 1.1581e-005 3.05772e-007 -3 8.02889 -4.9514 0.697667 -53.242 -4.63255 2.47416 -104.579 27.2009 42.5564 4.38208e-006 9.87258e-008 4.2217e-006 -20.1103 79.2093 24.5222 1.61183e-006 2.32867e-007 3 -8.02957 -4.95143 -0.697659 66.8649 83.3348 117.731 180 7.01475e-015 178.645 -12.1667 74.2024 13.6666 -5.3236e-007 -4.95797e-006 2.62711 -48.4597 81.7249 51.6049 8.13649 25.2327 -3.48773 3.53262 85.9512 168.286 4.54188e-006 -4.6773e-006 -2.02941 161.516 -76.7675 158.897 3.15201e-007 2.66692e-006 -3.26092 42.8997 78.5379 -39.9194 -8.13758 25.2488 3.48593 
49.9328 53.8469 5.86339 -3.03732 6.72444 16.1228 0.999762 5.86404 -0.361181 2.09503 15.7215 -0.972531 2.1179 17.3658 -1.01283 -9.13951 -3.85791 -8.77315 15.5111 1.10849 -8.60773 55.3366 -7.052 -4.23085 117.54 18.8147 -45.1795 4.57451e-006 8.23081e-007 3.25657e-006 -30.0818 87.0662 24.2476 1.1581e-005 3.05772e-007 -3 8.02889 -4.9514 0.697667 -53.3609 -4.60924 2.46689 -104.48 27.1023 42.3801 4.38208e-006 9.87258e-008 4.2217e-006 -19.9994 79.311 24.4697 1.61183e-006 2.32867e-007 3 -8.02957 -4.95143 -0.697659 67.1328 83.3897 117.462 180 7.01474e-015 178.643 -12.2112 74.1237 13.7417 -5.3236e-007 -4.95797e-006 2.62504 -48.1279 81.687 51.2881 8.13649 25.2327 -3.48773 2.87119 86.0138 168.92 4.54188e-006 -4.6773e-006 -2.03368 161.552 -76.6813 158.912 3.15201e-007 2.66692e-006 -3.26417 42.798 78.5087 -39.8055 -8.13758 25.2488 3.48593 
49.9258 53.787 5.80986 -2.98609 6.54745 16.062 1.00107 5.87452 -0.365119 2.09714 15.7423 -0.980739 2.12014 17.3867 -1.02111 -9.283 -3.78944 -8.72209 15.6105 1.14995 -8.57616 55.2305 -7.02662 -4.20943 117.695 18.8495 -45.1495 4.57451e-006 8.23081e-007 3.25657e-006 -29.7164 87.0945 23.8972 1.1581e-005 3.05772e-007 -3 8.02889 -4.9514 0.697667 -53.4778 -4.58467 2.45859 -104.381 27.0042 42.2041 4.38208e-006 9.87258e-008 4.2217e-006 -19.8887 79.412 24.4169 1.61183e-006 2.32867e-007 3 -8.02957 -4.95143 -0.697659 67.4351 83.4446 117.16 180 7.01473e-015 178.64 -12.2542 74.0465 13.8146 -5.3236e-007 -4.95797e-006 2.62297 -47.803 81.6491 50.9776 8.13649 25.2327 -3.48773 2.19059 86.0786 169.574 4.54188e-006 -4.6773e-006 -2.03794 161.586 -76.5964 158.926 3.15201e-007 2.66692e-006 -3.26734 42.6983 78.4797 -39.6931 -8.13758 25.2488 3.48593 
49.9153 53.7255 5.76924 -2.93596 6.36911 16.0026 1.00243 5.88512 -0.368899 2.09938 15.7635 -0.988645 2.12252 17.4078 -1.0291 -9.41889 -3.71728 -8.67122 15.7058 1.18603 -8.54376 55.1334 -7.00073 -4.18808 117.841 18.8878 -45.1175 4.57451e-006 8.23081e-007 3.25657e-006 -29.3479 87.1219 23.5435 1.1581e-005 3.05772e-007 -3 8.02889 -4.9514 0.697667 -53.5912 -4.55925 2.44944 -104.285 26.9076 42.0293 4.38208e-006 9.87258e-008 4.2217e-006 -19.7794 79.5113 24.3642 1.61183e-006 2.32867e-007 3 -8.02957 -4.95143 -0.697659 67.7748 83.4995 116.821 180 7.01473e-015 178.638 -12.295 73.9711 13.8844 -5.3236e-007 -4.95797e-006 2.62091 -47.4856 81.6113 50.6738 8.13649 25.2327 -3.48773 1.48752 86.1455 170.252 4.54188e-006 -4.6773e-006 -2.04214 161.618 -76.513 158.937 3.15201e-007 2.66692e-006 -3.27039 42.6003 78.4508 -39.5821 -8.13758 25.2488 3.48593 
49.9208 53.6343 5.73495 -2.88741 6.18948 15.945 1.00387 5.89585 -0.372453 2.10177 15.7848 -0.996124 2.12504 17.4292 -1.03666 -9.54503 -3.64101 -8.62086 15.7958 1.21523 -8.51044 55.048 -6.97444 -4.167 117.975 18.9299 -45.0848 4.57451e-006 8.23081e-007 3.25657e-006 -28.9971 87.1484 23.2066 1.1581e-005 3.05772e-007 -3 8.02889 -4.9514 0.697667 -53.6994 -4.53342 2.43965 -104.194 26.8137 41.8569 4.38208e-006 9.87258e-008 4.2217e-006 -19.6731 79.6077 24.3126 1.61183e-006 2.32867e-007 3 -8.02957 -4.95143 -0.697659 68.1552 83.5541 116.443 180 7.01472e-015 178.636 -12.3331 73.8978 13.9504 -5.3236e-007 -4.95797e-006 2.61886 -47.1764 81.5737 50.377 8.13649 25.2327 -3.48773 0.758434 86.2145 170.957 4.54188e-006 -4.6773e-006 -2.04625 161.649 -76.4315 158.947 3.15201e-007 2.66692e-006 -3.27329 42.5035 78.4218 -39.4718 -8.13758 25.2488 3.48593 
49.9157 53.5734 5.6865 -2.84089 6.00866 15.8894 1.00536 5.90672 -0.375715 2.10434 15.8065 -1.00305 2.12773 17.4509 -1.04366 -9.65928 -3.56021 -8.5713 15.8796 1.23605 -8.47613 54.977 -6.94787 -4.1464 118.093 18.9759 -45.0526 4.57451e-006 8.23081e-007 3.25657e-006 -28.6854 87.1742 22.9071 1.1581e-005 3.05772e-007 -3 8.02889 -4.9514 0.697667 -53.8009 -4.50761 2.42939 -104.109 26.7238 41.6877 4.38208e-006 9.87258e-008 4.2217e-006 -19.5711 79.6999 24.2626 1.61183e-006 2.32867e-007 3 -8.02957 -4.95143 -0.697659 68.5796 83.6082 116.023 180 7.01471e-015 178.633 -12.3681 73.8272 14.0117 -5.3236e-007 -4.95797e-006 2.61681 -46.8759 81.5361 50.0875 8.13649 25.2327 -3.48773 -0.000602757 86.2853 171.693 4.54188e-006 -4.6773e-006 -2.05025 161.677 -76.352 158.953 3.15201e-007 2.66692e-006 -3.27602 42.4077 78.3928 -39.3621 -8.13758 25.2488 3.48593 
49.923 53.4951 5.64855 -2.79687 5.8267 15.8361 1.00691 5.91775 -0.378617 2.10711 15.8285 -1.0093 2.13061 17.4729 -1.05 -9.75949 -3.47447 -8.52284 15.9561 1.24698 -8.44074 54.9232 -6.92114 -4.12647 118.193 19.026 -45.0223 4.57451e-006 8.23081e-007 3.25657e-006 -28.435 87.1993 22.6665 1.1581e-005 3.05772e-007 -3 8.02889 -4.9514 0.697667 -53.8942 -4.48226 2.41886 -104.032 26.6391 41.5228 4.38208e-006 9.87258e-008 4.2217e-006 -19.4751 79.7869 24.2152 1.61183e-006 2.32867e-007 3 -8.02957 -4.95143 -0.697659 69.0513 83.6616 115.558 180 7.01471e-015 178.631 -12.3994 73.7594 14.0677 -5.3236e-007 -4.95797e-006 2.61478 -46.5846 81.4987 49.8054 8.13649 25.2327 -3.48773 -0.793755 86.3581 172.466 4.54188e-006 -4.6773e-006 -2.05411 161.702 -76.2749 158.957 3.15201e-007 2.66692e-006 -3.27853 42.3123 78.3634 -39.2526 -8.13758 25.2488 3.48593 
